<svg width="384" height="319" viewBox="0 0 384 319" fill="none" xmlns="http://www.w3.org/2000/svg">
<path d="M56.233 289.265C131.232 328.441 252.775 328.441 327.757 289.265C402.739 250.089 402.756 186.596 327.757 147.419C252.758 108.243 131.215 108.252 56.233 147.419C-18.7487 186.587 -18.7399 250.098 56.233 289.265Z" fill="#7180B9" fill-opacity="0.2"/>
<path d="M33.989 226.813H37.1478C38.5956 221.978 39.5447 217.008 39.9801 211.981C40.6684 202.672 36.1596 188.422 27.9008 183.649C19.6421 178.875 15.1686 184.778 17.9391 189.825C20.7097 194.872 30.0537 209.228 30.1773 221.581L33.989 226.813Z" fill="#BA68C8"/>
<path d="M33.2302 226.813H34.1125C34.9746 220.717 34.9746 214.53 34.1125 208.434C32.6831 196.354 28.7126 190.743 25.0244 186.843C24.9436 186.757 24.8323 186.707 24.7148 186.704C24.5973 186.701 24.4833 186.744 24.3979 186.825C24.3125 186.906 24.2626 187.017 24.2593 187.135C24.256 187.252 24.2995 187.366 24.3803 187.451C27.9714 191.237 31.8361 196.707 33.2037 208.531C34.0778 214.593 34.0867 220.748 33.2302 226.813Z" fill="white"/>
<path d="M34.2449 226.813C32.6214 219.154 25.245 210.048 18.2833 208.478C10.2098 206.713 6.28341 210.975 7.43928 214.654C8.59515 218.334 14.9745 220.045 21.1686 222.931C23.2543 223.896 25.1608 225.209 26.8068 226.813H34.2449Z" fill="#BA68C8"/>
<path d="M31.3067 226.813H32.2508C28.8362 218.228 21.0715 212.104 14.7186 211.539C14.6611 211.533 14.603 211.539 14.5476 211.556C14.4923 211.573 14.4409 211.6 14.3965 211.637C14.3521 211.674 14.3155 211.72 14.289 211.771C14.2625 211.823 14.2466 211.879 14.2422 211.937C14.2348 211.994 14.2394 212.053 14.2557 212.109C14.272 212.165 14.2997 212.216 14.3369 212.261C14.3742 212.306 14.4203 212.342 14.4723 212.369C14.5243 212.395 14.5811 212.41 14.6392 212.413C20.6392 212.951 27.9715 218.704 31.3067 226.813Z" fill="white"/>
<path d="M319.075 146.087L325.684 149.555L326.239 145.416C322.966 136.187 325.657 125.723 329.195 121.364C332.733 117.005 332.054 113.802 330.775 112.373C329.495 110.943 324.642 109.858 319.842 115.47C315.042 121.081 313.94 127.893 314.742 134.767C315.254 139.064 317.513 143.475 319.075 146.087Z" fill="#BA68C8"/>
<path opacity="0.2" d="M319.075 146.087L325.684 149.555L326.239 145.416C322.966 136.187 325.657 125.723 329.195 121.364C332.733 117.005 332.054 113.802 330.775 112.373C329.495 110.943 324.642 109.858 319.842 115.47C315.042 121.081 313.94 127.893 314.742 134.767C315.254 139.064 317.513 143.475 319.075 146.087Z" fill="black"/>
<path d="M321.801 147.516L323.107 148.205C323.094 148.18 323.08 148.156 323.063 148.134C321.192 145.911 318.775 135.022 319.79 128.643C321.042 120.764 325.084 115.62 328.542 113.44C328.585 113.414 328.622 113.38 328.65 113.339C328.679 113.299 328.7 113.253 328.71 113.204C328.721 113.156 328.722 113.106 328.713 113.057C328.703 113.008 328.685 112.961 328.657 112.92C328.601 112.835 328.515 112.776 328.416 112.755C328.317 112.733 328.213 112.751 328.128 112.805C324.598 115.073 320.328 120.393 319.031 128.528C318.095 134.467 319.966 143.872 321.801 147.516Z" fill="white"/>
<path d="M325.816 130.337C327.748 135.075 327.739 137.396 324.589 137.881C321.748 138.305 318.298 141.755 321.501 147.358L340.242 157.187C340.289 156.139 340.548 155.112 341.003 154.168C341.458 153.223 342.1 152.38 342.889 151.69C345.969 148.611 348.81 146.29 348.369 142.867C347.927 139.443 344.954 136.143 344.46 133.161C343.966 130.178 345.483 128.475 348.722 125.131C351.96 121.787 354.898 116.599 350.575 114.234C346.251 111.87 341.301 115.92 339.236 118.646C337.172 121.373 335.283 122.573 331.216 122.343C327.148 122.114 323.884 125.599 325.816 130.337Z" fill="#BA68C8"/>
<path d="M331.119 152.405C331.031 137.864 341.451 120.834 347.248 117.393C347.334 117.339 347.395 117.253 347.42 117.155C347.444 117.056 347.43 116.952 347.38 116.864C347.327 116.779 347.244 116.718 347.147 116.693C347.05 116.668 346.947 116.682 346.86 116.731C340.983 120.261 330.475 137.299 330.36 152.025L331.119 152.405Z" fill="white"/>
<path d="M333.907 137.29C333.827 137.308 333.744 137.299 333.67 137.264C333.596 137.229 333.537 137.169 333.501 137.096C331.818 133.956 330.401 130.679 329.266 127.302C329.251 127.254 329.245 127.204 329.249 127.155C329.254 127.105 329.268 127.057 329.291 127.013C329.314 126.968 329.345 126.929 329.383 126.897C329.421 126.865 329.465 126.841 329.513 126.825C329.56 126.81 329.61 126.805 329.66 126.809C329.71 126.813 329.758 126.827 329.802 126.85C329.847 126.873 329.886 126.905 329.918 126.943C329.95 126.981 329.974 127.025 329.989 127.073C331.114 130.403 332.513 133.635 334.172 136.734C334.219 136.824 334.228 136.93 334.199 137.027C334.169 137.124 334.102 137.206 334.013 137.255L333.907 137.29Z" fill="white"/>
<path d="M331.401 146.202C331.329 146.215 331.254 146.208 331.186 146.182C331.117 146.155 331.057 146.11 331.013 146.052C330.955 145.967 330.932 145.863 330.951 145.763C330.969 145.662 331.026 145.572 331.11 145.514C334.91 142.853 339.52 141.605 344.142 141.984C344.243 141.997 344.334 142.049 344.396 142.13C344.458 142.21 344.486 142.311 344.473 142.412C344.46 142.513 344.408 142.604 344.328 142.666C344.247 142.728 344.146 142.756 344.045 142.743C339.619 142.406 335.211 143.592 331.551 146.105C331.508 146.147 331.457 146.18 331.401 146.202Z" fill="white"/>
<path d="M220.667 57.3761L199.164 44.9615L177.67 57.3761L199.164 69.7907L220.667 57.3761Z" fill="#F5F5F5"/>
<path d="M199.164 94.6287L220.667 82.2141V57.3761L199.164 69.7906V94.6287Z" fill="#EBEBEB"/>
<path d="M203.311 86.3876C203.197 86.3896 203.085 86.3623 202.985 86.3082C202.847 86.2079 202.738 86.0742 202.667 85.9198C202.596 85.7653 202.566 85.5953 202.579 85.4258V82.7788V82.5847H202.711L204.776 81.3759V84.3141C204.773 84.6925 204.679 85.0647 204.503 85.3994C204.326 85.7341 204.072 86.0215 203.761 86.2376C203.628 86.3277 203.472 86.3796 203.311 86.3876ZM202.914 82.9729V85.4082C202.899 85.5215 202.914 85.6367 202.955 85.7431C202.997 85.8495 203.065 85.9437 203.152 86.017C203.224 86.0489 203.303 86.0609 203.38 86.0515C203.458 86.0422 203.532 86.012 203.593 85.964C203.858 85.7797 204.075 85.536 204.228 85.2526C204.382 84.9691 204.466 84.6538 204.476 84.3317V84.1199H203.708L203.558 83.0876L202.914 82.9729ZM203.973 83.7847H204.449V81.9759L203.214 82.6906L203.823 82.8052L203.973 83.7847Z" fill="white"/>
<path d="M203.682 88.4876C203.637 88.4876 203.595 88.4699 203.563 88.4385C203.532 88.407 203.514 88.3644 203.514 88.3199V86.114C203.513 86.0917 203.516 86.0693 203.524 86.0484C203.532 86.0275 203.544 86.0085 203.56 85.9927C203.576 85.9768 203.595 85.9645 203.616 85.9566C203.637 85.9486 203.659 85.9451 203.682 85.9464C203.726 85.9464 203.769 85.9641 203.8 85.9955C203.832 86.027 203.849 86.0696 203.849 86.114V88.2846C203.853 88.3092 203.852 88.3343 203.845 88.3582C203.838 88.3822 203.827 88.4045 203.811 88.4236C203.795 88.4428 203.775 88.4584 203.753 88.4694C203.731 88.4804 203.707 88.4866 203.682 88.4876Z" fill="white"/>
<path d="M202.72 89.0434C202.69 89.0432 202.662 89.0349 202.637 89.0193C202.612 89.0037 202.592 88.9815 202.579 88.9552C202.566 88.9372 202.558 88.9167 202.555 88.8951C202.551 88.8736 202.553 88.8516 202.558 88.8306C202.564 88.8096 202.575 88.7901 202.589 88.7736C202.603 88.757 202.621 88.7437 202.64 88.7346L204.555 87.6229C204.574 87.6118 204.595 87.6047 204.617 87.6018C204.639 87.5989 204.661 87.6004 204.683 87.6061C204.704 87.6118 204.724 87.6217 204.741 87.6352C204.759 87.6487 204.774 87.6655 204.785 87.6846C204.805 87.7237 204.809 87.7689 204.798 87.8113C204.787 87.8537 204.76 87.8904 204.723 87.914L202.799 89.017L202.72 89.0434Z" fill="white"/>
<path d="M209.567 85.2317C209.506 85.2501 209.442 85.2501 209.382 85.2317C209.317 85.1884 209.265 85.129 209.231 85.0592C209.197 84.9895 209.182 84.9121 209.187 84.8347V84.3847C209.186 84.3631 209.189 84.3415 209.197 84.3212C209.204 84.3009 209.216 84.2823 209.231 84.2666C209.246 84.2509 209.264 84.2384 209.283 84.2299C209.303 84.2214 209.325 84.217 209.346 84.217C209.369 84.2157 209.391 84.2192 209.412 84.2272C209.433 84.2351 209.452 84.2474 209.468 84.2633C209.484 84.2791 209.496 84.2981 209.504 84.319C209.512 84.3399 209.515 84.3623 209.514 84.3847V84.7552C209.514 84.8258 209.514 84.8611 209.514 84.8611C209.514 84.8611 209.567 84.8611 209.62 84.8611C209.723 84.7679 209.804 84.6531 209.857 84.525C209.91 84.3969 209.935 84.2586 209.929 84.12V81.2259C209.929 81.2042 209.933 81.1828 209.942 81.163C209.95 81.1431 209.963 81.1252 209.978 81.1103C209.994 81.0955 210.013 81.0839 210.033 81.0765C210.053 81.0691 210.075 81.0658 210.096 81.067C210.138 81.067 210.179 81.0838 210.209 81.1136C210.238 81.1434 210.255 81.1837 210.255 81.2259V84.1729C210.262 84.3693 210.223 84.5646 210.142 84.7437C210.061 84.9227 209.939 85.0806 209.787 85.2052C209.716 85.2279 209.641 85.2369 209.567 85.2317Z" fill="white"/>
<path d="M207.82 82.6641V82.3817C207.861 81.6469 208.074 80.9319 208.442 80.2944C208.81 79.6569 209.322 79.1146 209.937 78.7112C210.158 78.5258 210.43 78.4128 210.716 78.3872C211.003 78.3617 211.291 78.4251 211.54 78.5686C211.79 78.7121 211.989 78.929 212.111 79.1897C212.233 79.4504 212.272 79.7423 212.223 80.0259V80.1229L207.82 82.6641ZM210.926 78.7465C210.634 78.7556 210.35 78.8441 210.105 79.0023C209.581 79.348 209.137 79.8015 208.802 80.3325C208.467 80.8635 208.25 81.4599 208.164 82.0817L211.887 79.9376C211.902 79.7294 211.862 79.521 211.772 79.3325C211.683 79.144 211.546 78.9817 211.376 78.8612C211.239 78.7834 211.083 78.7438 210.926 78.7465Z" fill="white"/>
<path d="M215.47 81.8435C215.427 81.8436 215.385 81.8271 215.354 81.7976C215.323 81.768 215.304 81.7276 215.302 81.6847V76.0553C215.302 76.0109 215.32 75.9682 215.351 75.9368C215.383 75.9053 215.425 75.8877 215.47 75.8877C215.514 75.8877 215.557 75.9053 215.588 75.9368C215.62 75.9682 215.637 76.0109 215.637 76.0553V81.6847C215.635 81.7276 215.616 81.768 215.585 81.7976C215.554 81.8271 215.513 81.8436 215.47 81.8435Z" fill="white"/>
<path d="M215.02 77.3347H214.958C214.938 77.326 214.919 77.3135 214.904 77.2977C214.889 77.2819 214.876 77.2632 214.868 77.2427C214.86 77.2223 214.856 77.2003 214.856 77.1783C214.857 77.1562 214.861 77.1344 214.87 77.1141L215.461 75.7553L216.114 76.5141C216.128 76.5303 216.138 76.5492 216.145 76.5695C216.152 76.5898 216.154 76.6112 216.153 76.6325C216.151 76.6538 216.145 76.6746 216.136 76.6936C216.126 76.7127 216.113 76.7296 216.096 76.7435C216.08 76.7574 216.061 76.768 216.041 76.7746C216.021 76.7813 215.999 76.7839 215.978 76.7822C215.957 76.7806 215.936 76.7748 215.917 76.7651C215.898 76.7554 215.881 76.7421 215.867 76.7259L215.549 76.3729L215.17 77.2553C215.155 77.2814 215.133 77.3027 215.106 77.3167C215.08 77.3308 215.05 77.337 215.02 77.3347Z" fill="white"/>
<path d="M217.032 80.9788C216.989 80.9765 216.948 80.9579 216.919 80.9267C216.889 80.8955 216.873 80.8541 216.873 80.8112V75.1818C216.867 75.1572 216.867 75.1316 216.872 75.107C216.878 75.0823 216.889 75.0592 216.905 75.0394C216.92 75.0196 216.94 75.0036 216.963 74.9926C216.986 74.9817 217.011 74.976 217.036 74.976C217.061 74.976 217.086 74.9817 217.109 74.9926C217.132 75.0036 217.152 75.0196 217.167 75.0394C217.183 75.0592 217.194 75.0823 217.2 75.107C217.205 75.1316 217.205 75.1572 217.199 75.1818V80.8112C217.199 80.8556 217.182 80.8983 217.15 80.9297C217.119 80.9611 217.076 80.9788 217.032 80.9788Z" fill="white"/>
<path d="M216.546 76.4612H216.485C216.464 76.4525 216.446 76.44 216.43 76.4242C216.415 76.4084 216.403 76.3897 216.395 76.3692C216.386 76.3487 216.382 76.3268 216.383 76.3047C216.383 76.2827 216.388 76.2609 216.396 76.2406L216.987 74.8818L217.64 75.6406C217.67 75.6717 217.686 75.7127 217.686 75.7553C217.686 75.7979 217.67 75.8389 217.64 75.87C217.608 75.8998 217.565 75.9163 217.521 75.9163C217.477 75.9163 217.435 75.8998 217.402 75.87L217.093 75.5083L216.714 76.3906C216.696 76.4173 216.67 76.4381 216.64 76.4506C216.611 76.4631 216.578 76.4668 216.546 76.4612Z" fill="white"/>
<path d="M199.164 94.6287L177.661 82.2141L177.67 57.3761L199.164 69.7906V94.6287Z" fill="#E0E0E0"/>
<path d="M189.582 64.2584L211.067 51.8349L208.64 50.432L187.146 62.8554L189.582 64.2584Z" fill="white"/>
<path d="M180.926 71.6171L188.629 76.0288C189.072 76.3207 189.441 76.712 189.706 77.1716C189.971 77.6311 190.125 78.1463 190.155 78.6759V83.4229C190.155 84.4023 189.467 84.7994 188.629 84.3053L180.926 79.8935C180.483 79.6022 180.113 79.211 179.848 78.7513C179.583 78.2916 179.43 77.7763 179.4 77.2465V72.4995C179.4 71.5201 180.088 71.1318 180.926 71.6171Z" fill="#BA68C8"/>
<path d="M180.335 72.7995L180.626 72.9759V78.2435L180.335 78.0759V72.7995Z" fill="#BA68C8"/>
<path d="M181.526 73.4877L182.029 73.7877V79.0553L181.526 78.7641V73.4877Z" fill="#BA68C8"/>
<path d="M182.717 74.1759L183.008 74.3436V79.62L182.717 79.4523V74.1759Z" fill="#BA68C8"/>
<path d="M183.608 74.6877L184.199 75.0318V80.3082L183.608 79.9553V74.6877Z" fill="#BA68C8"/>
<path d="M185.091 75.5524L185.391 75.72V80.9965L185.091 80.82V75.5524Z" fill="#BA68C8"/>
<path d="M185.955 76.0377L186.573 76.4082V81.6758L185.947 81.3053L185.955 76.0377Z" fill="#BA68C8"/>
<path d="M187.473 76.9288L187.764 77.0965V82.3641L187.473 82.1964V76.9288Z" fill="#BA68C8"/>
<path d="M188.152 77.3082L188.302 77.3965V82.6641L188.152 82.5847V77.3082Z" fill="#BA68C8"/>
<path d="M186.935 76.6377L187.076 76.7259V81.9935L186.935 81.9141V76.6377Z" fill="#BA68C8"/>
<path d="M184.535 75.2347L184.676 75.3141V80.5906L184.535 80.5023V75.2347Z" fill="#BA68C8"/>
<path d="M183.22 74.4759L183.37 74.5641V79.8406L183.22 79.7523V74.4759Z" fill="#BA68C8"/>
<path d="M182.276 73.9553L182.426 74.0436V79.32L182.276 79.2318V73.9553Z" fill="#BA68C8"/>
<path d="M180.997 73.1789L181.147 73.2671V78.5435L180.997 78.4553V73.1789Z" fill="#BA68C8"/>
<path d="M188.664 77.6082L188.955 77.7759V83.0523L188.664 82.8847V77.6082Z" fill="#BA68C8"/>
<path d="M191.999 53.2379L166.906 38.7586L141.82 53.2379L166.906 67.726L191.999 53.2379Z" fill="#F5F5F5"/>
<path d="M156.15 61.5143L181.244 47.035L178.808 45.632L153.723 60.1113L156.15 61.5143Z" fill="white"/>
<path d="M166.906 113.246L191.999 98.7669V53.2379L166.906 67.726V113.246Z" fill="#EBEBEB"/>
<path d="M171.053 105.049C170.938 105.051 170.824 105.021 170.726 104.961C170.587 104.862 170.476 104.729 170.405 104.574C170.334 104.419 170.304 104.248 170.32 104.079V101.432V101.237H170.461L172.517 100.029V102.967C172.513 103.345 172.419 103.717 172.242 104.051C172.066 104.386 171.812 104.673 171.503 104.89C171.37 104.984 171.214 105.039 171.053 105.049ZM170.656 101.635V104.07C170.641 104.183 170.655 104.298 170.697 104.405C170.738 104.511 170.806 104.605 170.894 104.679C170.965 104.711 171.044 104.722 171.122 104.713C171.199 104.704 171.273 104.674 171.335 104.626C171.599 104.441 171.817 104.198 171.97 103.914C172.123 103.631 172.208 103.315 172.217 102.993V102.782H171.45L171.3 101.749L170.656 101.635ZM171.714 102.446H172.235V100.637L171 101.361L171.608 101.467L171.714 102.446Z" fill="white"/>
<path d="M171.423 107.114C171.379 107.114 171.336 107.096 171.305 107.065C171.273 107.033 171.255 106.991 171.255 106.946V104.732C171.255 104.71 171.26 104.689 171.268 104.669C171.277 104.649 171.289 104.631 171.305 104.616C171.321 104.601 171.339 104.59 171.36 104.582C171.38 104.575 171.402 104.572 171.423 104.573C171.466 104.573 171.507 104.589 171.539 104.619C171.57 104.648 171.589 104.689 171.591 104.732V106.946C171.589 106.99 171.57 107.031 171.539 107.062C171.508 107.093 171.467 107.112 171.423 107.114Z" fill="white"/>
<path d="M170.47 107.696C170.442 107.697 170.414 107.69 170.389 107.676C170.364 107.662 170.343 107.641 170.329 107.617C170.309 107.578 170.304 107.533 170.316 107.49C170.327 107.448 170.354 107.411 170.391 107.387L172.305 106.284C172.325 106.273 172.346 106.266 172.368 106.263C172.389 106.26 172.412 106.262 172.433 106.268C172.454 106.273 172.474 106.283 172.492 106.297C172.509 106.31 172.524 106.327 172.535 106.346C172.546 106.365 172.553 106.385 172.556 106.406C172.558 106.428 172.557 106.449 172.551 106.47C172.545 106.49 172.535 106.51 172.522 106.526C172.509 106.543 172.492 106.557 172.473 106.567L170.55 107.679C170.526 107.693 170.498 107.699 170.47 107.696Z" fill="white"/>
<path d="M177.308 103.858C177.244 103.858 177.181 103.843 177.123 103.814C177.059 103.771 177.007 103.711 176.973 103.641C176.939 103.572 176.924 103.494 176.929 103.417V102.958C176.929 102.936 176.933 102.915 176.942 102.895C176.95 102.875 176.963 102.857 176.979 102.842C176.994 102.828 177.013 102.816 177.033 102.809C177.054 102.801 177.075 102.798 177.097 102.799C177.118 102.799 177.138 102.803 177.157 102.811C177.177 102.819 177.194 102.831 177.209 102.846C177.224 102.86 177.235 102.878 177.243 102.897C177.251 102.917 177.256 102.937 177.256 102.958V103.417C177.256 103.479 177.256 103.514 177.256 103.523C177.256 103.532 177.308 103.523 177.361 103.523C177.464 103.428 177.545 103.311 177.599 103.182C177.652 103.052 177.676 102.913 177.67 102.773V99.8345C177.67 99.7901 177.688 99.7474 177.719 99.716C177.751 99.6845 177.793 99.6669 177.838 99.6669C177.882 99.669 177.923 99.6874 177.954 99.7184C177.985 99.7493 178.003 99.7907 178.006 99.8345V102.773C178.014 102.97 177.975 103.167 177.892 103.347C177.809 103.526 177.685 103.683 177.529 103.805C177.461 103.839 177.385 103.857 177.308 103.858Z" fill="white"/>
<path d="M175.561 101.29V100.999C175.603 100.266 175.817 99.5523 176.184 98.9163C176.552 98.2803 177.064 97.7395 177.679 97.3375C177.899 97.1521 178.171 97.0391 178.458 97.0136C178.745 96.9881 179.032 97.0514 179.282 97.1949C179.531 97.3385 179.731 97.5553 179.853 97.816C179.975 98.0767 180.014 98.3686 179.964 98.6522V98.7492L175.561 101.29ZM178.667 97.3639C178.376 97.3773 178.094 97.4654 177.847 97.6198C177.322 97.9664 176.877 98.4213 176.542 98.9539C176.207 99.4866 175.99 100.085 175.906 100.708L179.629 98.5639C179.642 98.3546 179.602 98.1453 179.513 97.9555C179.423 97.7658 179.287 97.6017 179.117 97.4787C178.979 97.4036 178.824 97.3641 178.667 97.3639Z" fill="white"/>
<path d="M183.247 100.47C183.202 100.47 183.159 100.452 183.128 100.421C183.097 100.389 183.079 100.347 183.079 100.302V94.6728C183.079 94.6283 183.097 94.5857 183.128 94.5543C183.159 94.5228 183.202 94.5052 183.247 94.5052C183.291 94.5052 183.334 94.5228 183.365 94.5543C183.396 94.5857 183.414 94.6283 183.414 94.6728V100.302C183.414 100.347 183.396 100.389 183.365 100.421C183.334 100.452 183.291 100.47 183.247 100.47Z" fill="white"/>
<path d="M182.761 95.961H182.7C182.68 95.9533 182.661 95.9416 182.646 95.9266C182.631 95.9117 182.618 95.8938 182.61 95.874C182.602 95.8542 182.598 95.8329 182.598 95.8115C182.598 95.7901 182.603 95.7689 182.611 95.7493L183.202 94.3904L183.855 95.1493C183.884 95.182 183.897 95.2246 183.894 95.2676C183.891 95.3106 183.871 95.3506 183.838 95.3787C183.805 95.4067 183.762 95.4207 183.719 95.4174C183.676 95.414 183.636 95.3938 183.608 95.361L183.291 94.9993L182.911 95.8816C182.896 95.9077 182.874 95.929 182.848 95.943C182.821 95.9571 182.791 95.9633 182.761 95.961Z" fill="white"/>
<path d="M184.773 99.5963C184.731 99.5963 184.69 99.5795 184.661 99.5498C184.631 99.52 184.614 99.4796 184.614 99.4375V93.8081C184.613 93.7865 184.616 93.7649 184.624 93.7446C184.631 93.7243 184.643 93.7057 184.657 93.69C184.672 93.6743 184.69 93.6619 184.71 93.6533C184.73 93.6448 184.751 93.6404 184.773 93.6405C184.795 93.6392 184.818 93.6426 184.839 93.6506C184.86 93.6586 184.879 93.6709 184.894 93.6867C184.91 93.7025 184.922 93.7215 184.93 93.7425C184.938 93.7634 184.942 93.7857 184.941 93.8081V99.4375C184.941 99.4591 184.936 99.4805 184.928 99.5003C184.919 99.5202 184.907 99.5381 184.891 99.553C184.875 99.5679 184.857 99.5794 184.836 99.5868C184.816 99.5943 184.795 99.5975 184.773 99.5963Z" fill="white"/>
<path d="M184.296 95.0875H184.226C184.186 95.0683 184.155 95.0351 184.139 94.9943C184.123 94.9535 184.122 94.9081 184.138 94.8669L184.729 93.5081L185.391 94.2669C185.418 94.2989 185.433 94.3396 185.433 94.3816C185.433 94.4237 185.418 94.4644 185.391 94.4963C185.375 94.5121 185.356 94.5246 185.336 94.5331C185.316 94.5416 185.294 94.546 185.271 94.546C185.249 94.546 185.227 94.5416 185.207 94.5331C185.186 94.5246 185.168 94.5121 185.152 94.4963L184.844 94.1346L184.464 95.0169C184.447 95.0444 184.421 95.066 184.391 95.0786C184.361 95.0912 184.328 95.0943 184.296 95.0875Z" fill="white"/>
<path d="M166.906 113.246L141.82 98.7669V53.2379L166.906 67.726V113.246Z" fill="#E0E0E0"/>
<path d="M146.92 89.2993L154.614 93.711C155.06 94.0014 155.43 94.3922 155.697 94.8519C155.964 95.3116 156.119 95.8275 156.15 96.3581V101.114C156.15 102.084 155.461 102.482 154.614 101.996L146.92 97.5845C146.475 97.2947 146.105 96.9039 145.84 96.4439C145.575 95.9839 145.422 95.4678 145.394 94.9375V90.1905C145.394 89.167 146.082 88.814 146.92 89.2993Z" fill="#F5F5F5"/>
<path d="M146.329 90.4817L146.62 90.6581V95.9257L146.329 95.7581V90.4817Z" fill="#E0E0E0"/>
<path d="M147.52 91.1699L148.023 91.4699V96.7463L147.52 96.4463V91.1699Z" fill="#E0E0E0"/>
<path d="M148.703 91.8581L149.003 92.0258L148.994 97.3022L148.703 97.1345V91.8581Z" fill="#E0E0E0"/>
<path d="M149.603 92.3699L150.185 92.714V97.9904L149.603 97.6375V92.3699Z" fill="#E0E0E0"/>
<path d="M151.085 93.2346L151.376 93.4022V98.6786L151.085 98.5022V93.2346Z" fill="#E0E0E0"/>
<path d="M151.941 93.7199L152.567 94.0905V99.3581L151.941 98.9875V93.7199Z" fill="#E0E0E0"/>
<path d="M153.467 94.6022L153.759 94.7787V100.046L153.467 99.8786V94.6022Z" fill="#E0E0E0"/>
<path d="M154.147 94.9904L154.297 95.0787V100.355L154.147 100.267V94.9904Z" fill="#E0E0E0"/>
<path d="M152.929 94.3199L153.07 94.4081V99.6757L152.929 99.5963V94.3199Z" fill="#E0E0E0"/>
<path d="M150.529 92.9169L150.67 92.9963V98.2728L150.529 98.1845V92.9169Z" fill="#E0E0E0"/>
<path d="M149.214 92.1581L149.356 92.2464V97.5228L149.214 97.4345V92.1581Z" fill="#E0E0E0"/>
<path d="M148.27 91.6375L148.42 91.7258V97.0022L148.27 96.914V91.6375Z" fill="#E0E0E0"/>
<path d="M146.991 90.8611L147.141 90.9493V96.2257L146.991 96.1375V90.8611Z" fill="#E0E0E0"/>
<path d="M154.659 95.2904L154.95 95.4581V100.735L154.659 100.567V95.2904Z" fill="#E0E0E0"/>
<path d="M153.723 65.9877L156.15 67.3907V61.5143L153.723 60.1113V65.9877Z" fill="#F0F0F0"/>
<path d="M116.727 100.832L98.8061 90.4905L73.7211 104.97L91.6415 115.32L116.727 100.832Z" fill="#F5F5F5"/>
<path d="M91.6415 156.702L116.727 142.222V100.832L91.6415 115.32V156.702Z" fill="#EBEBEB"/>
<path d="M95.7797 148.469C95.6674 148.472 95.557 148.441 95.462 148.381C95.3235 148.282 95.2132 148.149 95.142 147.994C95.0708 147.839 95.0412 147.668 95.0561 147.499V144.852V144.658H95.1885L97.2532 143.449V146.387C97.2488 146.765 97.1546 147.137 96.9781 147.471C96.8017 147.806 96.5481 148.094 96.2385 148.311C96.1022 148.403 95.9439 148.458 95.7797 148.469ZM95.3914 145.055V147.49C95.375 147.603 95.3883 147.719 95.4301 147.826C95.4719 147.933 95.5406 148.027 95.6296 148.099C95.7018 148.127 95.7799 148.137 95.8569 148.128C95.9339 148.119 96.0074 148.091 96.0708 148.046C96.3351 147.861 96.5525 147.618 96.7057 147.334C96.8589 147.051 96.9437 146.736 96.9532 146.414V146.202H96.1855L96.0355 145.169L95.3914 145.055ZM96.4502 145.866H96.9267V144.049L95.6914 144.772L96.3002 144.878L96.4502 145.866Z" fill="white"/>
<path d="M96.1591 150.569C96.1146 150.569 96.072 150.552 96.0406 150.52C96.0091 150.489 95.9915 150.446 95.9915 150.402V148.187C95.9914 148.165 95.9958 148.144 96.0043 148.124C96.0129 148.104 96.0254 148.086 96.0411 148.072C96.0568 148.057 96.0753 148.045 96.0956 148.038C96.1159 148.03 96.1375 148.027 96.1591 148.028C96.2012 148.028 96.2416 148.045 96.2714 148.075C96.3012 148.105 96.3179 148.145 96.3179 148.187V150.402C96.318 150.445 96.3015 150.486 96.272 150.517C96.2424 150.548 96.202 150.567 96.1591 150.569Z" fill="white"/>
<path d="M95.1974 151.116C95.1687 151.118 95.1401 151.112 95.1151 151.097C95.0901 151.083 95.0696 151.062 95.0562 151.037C95.0435 151.019 95.0348 150.998 95.0306 150.976C95.0264 150.955 95.0268 150.932 95.0318 150.911C95.0368 150.889 95.0462 150.869 95.0595 150.851C95.0729 150.833 95.0897 150.818 95.1091 150.808L97.0326 149.705C97.0517 149.694 97.0728 149.686 97.0947 149.684C97.1166 149.681 97.1388 149.682 97.1602 149.688C97.1815 149.694 97.2014 149.704 97.2189 149.717C97.2364 149.731 97.2511 149.747 97.262 149.766C97.2729 149.785 97.2799 149.805 97.2827 149.827C97.2855 149.848 97.2839 149.869 97.2781 149.89C97.2724 149.911 97.2625 149.93 97.2491 149.946C97.2357 149.963 97.2191 149.977 97.2003 149.987L95.2768 151.099C95.2528 151.113 95.225 151.119 95.1974 151.116Z" fill="white"/>
<path d="M102.044 147.314C101.98 147.314 101.916 147.299 101.859 147.269C101.795 147.226 101.743 147.167 101.709 147.097C101.675 147.027 101.659 146.95 101.665 146.872V146.414C101.665 146.371 101.682 146.331 101.711 146.301C101.741 146.271 101.782 146.255 101.824 146.255C101.845 146.253 101.867 146.257 101.887 146.264C101.908 146.272 101.926 146.283 101.942 146.298C101.957 146.313 101.97 146.331 101.978 146.351C101.987 146.371 101.991 146.392 101.991 146.414V146.872C101.991 146.934 101.991 146.969 101.991 146.978C101.991 146.987 102.044 146.978 102.097 146.978C102.198 146.882 102.278 146.765 102.331 146.636C102.385 146.507 102.41 146.368 102.406 146.228V143.29C102.4 143.265 102.4 143.24 102.406 143.215C102.411 143.191 102.422 143.167 102.438 143.148C102.454 143.128 102.474 143.112 102.496 143.101C102.519 143.09 102.544 143.084 102.569 143.084C102.595 143.084 102.619 143.09 102.642 143.101C102.665 143.112 102.685 143.128 102.701 143.148C102.716 143.167 102.727 143.191 102.733 143.215C102.738 143.24 102.738 143.265 102.733 143.29V146.228C102.74 146.425 102.701 146.62 102.62 146.799C102.539 146.979 102.417 147.136 102.265 147.261C102.196 147.295 102.121 147.313 102.044 147.314Z" fill="white"/>
<path d="M100.297 144.755V144.464C100.339 143.73 100.552 143.017 100.92 142.381C101.288 141.745 101.8 141.204 102.415 140.802C102.634 140.614 102.906 140.5 103.193 140.473C103.48 140.447 103.768 140.51 104.018 140.654C104.268 140.798 104.466 141.016 104.587 141.278C104.708 141.54 104.744 141.833 104.691 142.117V142.214L100.297 144.755ZM103.403 140.828C103.112 140.842 102.829 140.93 102.583 141.084C102.057 141.431 101.613 141.886 101.278 142.418C100.943 142.951 100.726 143.549 100.641 144.172L104.365 142.019C104.377 141.811 104.337 141.604 104.247 141.415C104.158 141.227 104.022 141.065 103.853 140.943C103.718 140.866 103.567 140.824 103.412 140.819L103.403 140.828Z" fill="white"/>
<path d="M107.983 143.925C107.938 143.925 107.895 143.908 107.864 143.876C107.833 143.845 107.815 143.802 107.815 143.758V138.128C107.815 138.084 107.833 138.041 107.864 138.01C107.895 137.978 107.938 137.961 107.983 137.961C108.027 137.961 108.07 137.978 108.101 138.01C108.133 138.041 108.15 138.084 108.15 138.128V143.758C108.15 143.802 108.133 143.845 108.101 143.876C108.07 143.908 108.027 143.925 107.983 143.925Z" fill="white"/>
<path d="M107.497 139.461H107.436C107.416 139.453 107.397 139.441 107.382 139.426C107.367 139.411 107.354 139.393 107.346 139.374C107.338 139.354 107.334 139.333 107.334 139.311C107.334 139.29 107.339 139.269 107.347 139.249L107.938 137.89L108.591 138.649C108.619 138.682 108.633 138.724 108.63 138.767C108.627 138.81 108.607 138.85 108.574 138.878C108.558 138.892 108.539 138.903 108.518 138.909C108.498 138.916 108.477 138.919 108.455 138.917C108.412 138.914 108.372 138.893 108.344 138.861L108.027 138.499L107.647 139.381C107.632 139.407 107.61 139.429 107.584 139.443C107.557 139.457 107.527 139.463 107.497 139.461Z" fill="white"/>
<path d="M109.509 143.052C109.466 143.052 109.425 143.035 109.393 143.006C109.362 142.976 109.344 142.936 109.341 142.893V137.264C109.341 137.219 109.359 137.177 109.39 137.145C109.422 137.114 109.464 137.096 109.509 137.096C109.531 137.095 109.554 137.098 109.575 137.106C109.596 137.114 109.615 137.126 109.63 137.142C109.646 137.158 109.658 137.177 109.666 137.198C109.674 137.219 109.678 137.241 109.677 137.264V142.893C109.677 142.915 109.672 142.936 109.664 142.956C109.655 142.976 109.643 142.994 109.627 143.009C109.611 143.023 109.593 143.035 109.572 143.042C109.552 143.05 109.531 143.053 109.509 143.052Z" fill="white"/>
<path d="M109.024 138.578C109.004 138.586 108.982 138.586 108.962 138.578C108.942 138.571 108.924 138.559 108.908 138.544C108.893 138.529 108.881 138.511 108.873 138.491C108.864 138.471 108.86 138.45 108.86 138.429C108.861 138.407 108.865 138.386 108.874 138.367L109.465 137.008L110.118 137.767C110.147 137.798 110.163 137.839 110.163 137.881C110.163 137.924 110.147 137.965 110.118 137.996C110.102 138.012 110.084 138.024 110.063 138.033C110.043 138.041 110.021 138.046 109.999 138.046C109.976 138.046 109.955 138.041 109.934 138.033C109.914 138.024 109.895 138.012 109.88 137.996L109.571 137.634L109.191 138.517C109.172 138.542 109.146 138.561 109.116 138.572C109.087 138.583 109.055 138.585 109.024 138.578Z" fill="white"/>
<path d="M91.6415 156.702L73.7211 146.361V104.97L91.6415 115.32V156.702Z" fill="#E0E0E0"/>
<path d="M82.0415 115.655L84.468 117.058V111.181L82.0415 109.779V115.655Z" fill="#F5F5F5"/>
<path d="M84.468 111.181L109.562 96.6934L107.127 95.2904L82.0415 109.779L84.468 111.181Z" fill="white"/>
<path d="M84.468 136.011L52.2183 117.393L19.9597 136.011L52.2183 154.637L84.468 136.011Z" fill="#F5F5F5"/>
<path d="M52.2183 179.466L84.468 160.849V136.011L52.2183 154.637V179.466Z" fill="#EBEBEB"/>
<path d="M56.3565 171.225C56.2449 171.223 56.1356 171.193 56.0389 171.137C55.901 171.037 55.7912 170.904 55.7201 170.749C55.649 170.594 55.619 170.424 55.633 170.254V167.607V167.413H55.7654L57.83 166.196V169.143C57.8243 169.519 57.7294 169.889 57.553 170.222C57.3766 170.555 57.1238 170.841 56.8154 171.057C56.6796 171.152 56.5214 171.21 56.3565 171.225ZM55.9595 167.81V170.246C55.9438 170.358 55.9575 170.472 55.9993 170.577C56.041 170.682 56.1094 170.775 56.1977 170.846C56.2699 170.879 56.3496 170.892 56.4287 170.884C56.5077 170.876 56.5833 170.848 56.6477 170.802C56.911 170.616 57.1276 170.372 57.2807 170.089C57.4338 169.806 57.5192 169.491 57.53 169.169V168.949H56.7359L56.5859 167.916L55.9595 167.81ZM57.0183 168.622H57.53V166.813L56.3036 167.537L56.9124 167.643L57.0183 168.622Z" fill="white"/>
<path d="M56.7271 173.325C56.7062 173.325 56.6856 173.321 56.6663 173.313C56.647 173.305 56.6295 173.293 56.6148 173.279C56.6 173.264 56.5883 173.246 56.5803 173.227C56.5724 173.208 56.5683 173.187 56.5683 173.166V170.952C56.5625 170.927 56.5624 170.901 56.5679 170.877C56.5734 170.852 56.5844 170.829 56.6001 170.809C56.6158 170.789 56.6358 170.773 56.6585 170.762C56.6813 170.751 56.7062 170.746 56.7315 170.746C56.7568 170.746 56.7817 170.751 56.8044 170.762C56.8272 170.773 56.8471 170.789 56.8628 170.809C56.8785 170.829 56.8896 170.852 56.8951 170.877C56.9006 170.901 56.9005 170.927 56.8947 170.952V173.166C56.8948 173.188 56.8904 173.209 56.8818 173.229C56.8733 173.249 56.8608 173.267 56.8451 173.282C56.8294 173.297 56.8109 173.308 56.7906 173.316C56.7703 173.323 56.7487 173.326 56.7271 173.325Z" fill="white"/>
<path d="M55.7653 173.872C55.73 173.87 55.6963 173.857 55.669 173.834C55.6417 173.811 55.6223 173.781 55.6134 173.747C55.6046 173.712 55.6069 173.676 55.6199 173.643C55.6329 173.61 55.656 173.582 55.6859 173.563L57.6094 172.46C57.6269 172.448 57.6469 172.439 57.668 172.435C57.6891 172.431 57.7109 172.431 57.7318 172.436C57.7527 172.441 57.7723 172.451 57.7893 172.464C57.8062 172.477 57.8201 172.494 57.83 172.513C57.8427 172.531 57.8514 172.552 57.8556 172.574C57.8598 172.596 57.8594 172.618 57.8544 172.64C57.8494 172.661 57.84 172.682 57.8266 172.699C57.8133 172.717 57.7964 172.732 57.7771 172.743L55.8535 173.872H55.7653Z" fill="white"/>
<path d="M62.6123 170.078C62.5542 170.091 62.4939 170.091 62.4358 170.078C62.3684 170.035 62.3139 169.975 62.2781 169.903C62.2424 169.832 62.2267 169.752 62.2329 169.672V169.222C62.2329 169.178 62.2505 169.135 62.282 169.104C62.3134 169.072 62.356 169.054 62.4005 169.054C62.445 169.054 62.4876 169.072 62.519 169.104C62.5505 169.135 62.5681 169.178 62.5681 169.222V169.672C62.556 169.709 62.556 169.75 62.5681 169.787C62.5681 169.787 62.6211 169.787 62.6829 169.787C62.7824 169.69 62.8605 169.573 62.9122 169.444C62.9639 169.314 62.9879 169.176 62.9829 169.037V166.099C62.985 166.055 63.0033 166.013 63.0343 165.982C63.0653 165.951 63.1067 165.933 63.1505 165.931C63.195 165.931 63.2376 165.949 63.269 165.98C63.3005 166.012 63.3181 166.054 63.3181 166.099V169.037C63.3254 169.233 63.2869 169.429 63.2058 169.608C63.1247 169.787 63.003 169.945 62.8505 170.069C62.7729 170.091 62.6913 170.094 62.6123 170.078Z" fill="white"/>
<path d="M60.8741 167.51V167.219C60.9125 166.485 61.1244 165.77 61.4925 165.134C61.8606 164.497 62.3744 163.957 62.9918 163.557C63.2109 163.37 63.4828 163.255 63.7699 163.229C64.057 163.202 64.3452 163.266 64.5948 163.41C64.8445 163.554 65.0433 163.772 65.1639 164.034C65.2845 164.296 65.321 164.589 65.2682 164.872V164.969L60.8741 167.51ZM63.98 163.584C63.6865 163.599 63.4015 163.687 63.1506 163.84C62.6272 164.187 62.184 164.643 61.8508 165.175C61.5175 165.708 61.3019 166.305 61.2183 166.928L64.9329 164.775C64.9472 164.568 64.9085 164.36 64.8205 164.172C64.7325 163.984 64.5982 163.821 64.43 163.699C64.2929 163.621 64.1375 163.581 63.98 163.584Z" fill="white"/>
<path d="M68.5593 166.69C68.5369 166.691 68.5145 166.688 68.4936 166.68C68.4727 166.672 68.4537 166.659 68.4379 166.644C68.422 166.628 68.4097 166.609 68.4018 166.588C68.3938 166.567 68.3903 166.545 68.3916 166.522V160.893C68.3859 160.868 68.3857 160.843 68.3913 160.818C68.3968 160.793 68.4078 160.77 68.4235 160.75C68.4392 160.731 68.4592 160.715 68.4819 160.704C68.5046 160.693 68.5296 160.687 68.5549 160.687C68.5801 160.687 68.6051 160.693 68.6278 160.704C68.6505 160.715 68.6705 160.731 68.6862 160.75C68.7019 160.77 68.7129 160.793 68.7184 160.818C68.724 160.843 68.7238 160.868 68.7181 160.893V166.522C68.7193 166.544 68.7161 166.565 68.7086 166.586C68.7012 166.606 68.6897 166.625 68.6748 166.64C68.6599 166.656 68.642 166.668 68.6222 166.677C68.6023 166.685 68.5809 166.69 68.5593 166.69Z" fill="white"/>
<path d="M68.1181 162.181H68.0475C68.0272 162.173 68.0088 162.16 67.9936 162.144C67.9784 162.128 67.9667 162.109 67.9592 162.088C67.9517 162.067 67.9487 162.045 67.9502 162.023C67.9517 162.001 67.9578 161.98 67.9681 161.96L68.5505 160.602L69.2122 161.36C69.2415 161.394 69.2561 161.439 69.2527 161.483C69.2494 161.528 69.2285 161.569 69.1946 161.599C69.1606 161.628 69.1165 161.642 69.0718 161.639C69.0271 161.636 68.9856 161.615 68.9563 161.581L68.6475 161.219L68.2681 162.102C68.2524 162.127 68.2303 162.148 68.2039 162.162C68.1775 162.176 68.1479 162.182 68.1181 162.181Z" fill="white"/>
<path d="M70.0857 165.816C70.0413 165.816 69.9986 165.799 69.9672 165.767C69.9358 165.736 69.9181 165.693 69.9181 165.649V160.019C69.9181 159.975 69.9358 159.932 69.9672 159.901C69.9986 159.869 70.0413 159.852 70.0857 159.852C70.1302 159.852 70.1728 159.869 70.2043 159.901C70.2357 159.932 70.2534 159.975 70.2534 160.019V165.649C70.2534 165.693 70.2357 165.736 70.2043 165.767C70.1728 165.799 70.1302 165.816 70.0857 165.816Z" fill="white"/>
<path d="M69.6006 161.308H69.5388C69.5188 161.3 69.5006 161.288 69.4852 161.273C69.4699 161.258 69.4577 161.24 69.4495 161.22C69.4412 161.201 69.4371 161.179 69.4373 161.158C69.4374 161.137 69.442 161.115 69.4506 161.096L70.0417 159.728L70.6947 160.487C70.7104 160.503 70.7229 160.521 70.7314 160.542C70.74 160.562 70.7443 160.584 70.7443 160.606C70.7443 160.628 70.74 160.65 70.7314 160.671C70.7229 160.691 70.7104 160.71 70.6947 160.725C70.6798 160.741 70.662 160.753 70.6423 160.761C70.6226 160.77 70.6014 160.774 70.58 160.774C70.5585 160.774 70.5373 160.77 70.5176 160.761C70.4979 160.753 70.4801 160.741 70.4653 160.725L70.1476 160.363L69.7682 161.246C69.7497 161.272 69.7238 161.291 69.6939 161.302C69.664 161.313 69.6315 161.315 69.6006 161.308Z" fill="white"/>
<path d="M52.2183 179.466L19.9597 160.849V136.011L52.2183 154.637V179.466Z" fill="#E0E0E0"/>
<path d="M34.8713 150.499L37.2978 151.902V146.025L34.8713 144.622V150.499Z" fill="#F5F5F5"/>
<path d="M37.2978 146.025L69.5563 127.408L67.1299 125.996L34.8713 144.622L37.2978 146.025Z" fill="white"/>
<path d="M25.0686 151.381L32.7626 155.793C33.2078 156.083 33.5786 156.474 33.8452 156.934C34.1118 157.393 34.2669 157.909 34.2979 158.44V163.196C34.2979 164.166 33.6097 164.563 32.7626 164.078L25.0686 159.666C24.6236 159.377 24.2534 158.986 23.9882 158.526C23.7229 158.066 23.5701 157.55 23.5421 157.019V152.272C23.5421 151.284 24.2303 150.931 25.0686 151.381Z" fill="#F5F5F5"/>
<path d="M24.4773 152.563L24.7685 152.731V158.008L24.4773 157.84V152.563Z" fill="#E0E0E0"/>
<path d="M25.6597 153.252L26.1714 153.552V158.819L25.6597 158.528V153.252Z" fill="#E0E0E0"/>
<path d="M26.8508 153.94L27.1508 154.108L27.142 159.384L26.8508 159.216V153.94Z" fill="#E0E0E0"/>
<path d="M27.7509 154.452L28.342 154.796L28.3332 160.072L27.7509 159.719V154.452Z" fill="#E0E0E0"/>
<path d="M29.2332 155.316L29.5243 155.484V160.76L29.2332 160.584V155.316Z" fill="#E0E0E0"/>
<path d="M30.0891 155.802L30.7156 156.172V161.44L30.0891 161.069V155.802Z" fill="#E0E0E0"/>
<path d="M31.6155 156.693L31.9067 156.861V162.128L31.6155 161.96V156.693Z" fill="#E0E0E0"/>
<path d="M32.2949 157.072L32.4449 157.16V162.428L32.2949 162.349V157.072Z" fill="#E0E0E0"/>
<path d="M31.0773 156.402L31.2184 156.481V161.758L31.0773 161.678V156.402Z" fill="#E0E0E0"/>
<path d="M28.6774 154.999L28.8185 155.078V160.355L28.6774 160.266V154.999Z" fill="#E0E0E0"/>
<path d="M27.3625 154.24L27.5125 154.328V159.596L27.3625 159.516V154.24Z" fill="#E0E0E0"/>
<path d="M26.4185 153.719L26.5685 153.808V159.084L26.4185 158.996V153.719Z" fill="#E0E0E0"/>
<path d="M25.1392 152.943L25.2892 153.031V158.299L25.1392 158.219V152.943Z" fill="#E0E0E0"/>
<path d="M32.8066 157.372L33.0978 157.549V162.816L32.8066 162.649V157.372Z" fill="#E0E0E0"/>
<path d="M77.3034 86.3523L52.2183 71.8642L27.1244 86.3523L52.2183 100.832L77.3034 86.3523Z" fill="#F5F5F5"/>
<path d="M52.2183 150.499L77.3033 136.011V86.3523L52.2183 100.832V150.499Z" fill="#EBEBEB"/>
<path d="M56.3565 142.258C56.2456 142.259 56.1363 142.231 56.0389 142.178C55.901 142.079 55.7912 141.945 55.7201 141.79C55.649 141.636 55.619 141.465 55.633 141.296V138.649V138.455H55.7654L57.83 137.246V140.184C57.825 140.562 57.7304 140.934 57.554 141.268C57.3776 141.602 57.1245 141.89 56.8154 142.108C56.6782 142.197 56.52 142.249 56.3565 142.258ZM55.9595 138.843V141.287C55.9455 141.399 55.96 141.513 56.0016 141.618C56.0433 141.723 56.1107 141.815 56.1977 141.887C56.2699 141.92 56.3496 141.933 56.4287 141.926C56.5077 141.918 56.5833 141.889 56.6477 141.843C56.9111 141.656 57.1278 141.41 57.2809 141.126C57.4339 140.841 57.5192 140.525 57.53 140.202V139.99H56.7359L56.5859 138.958L55.9595 138.843ZM57.0183 139.655H57.53V137.846L56.3036 138.569L56.9124 138.675L57.0183 139.655Z" fill="white"/>
<path d="M56.7271 144.358C56.7054 144.358 56.684 144.353 56.6642 144.345C56.6443 144.336 56.6264 144.324 56.6115 144.308C56.5966 144.292 56.5851 144.274 56.5777 144.254C56.5703 144.233 56.567 144.212 56.5682 144.19V141.984C56.567 141.963 56.5703 141.941 56.5777 141.921C56.5851 141.9 56.5966 141.882 56.6115 141.866C56.6264 141.85 56.6443 141.838 56.6642 141.829C56.684 141.821 56.7054 141.816 56.7271 141.817C56.7494 141.815 56.7718 141.819 56.7927 141.827C56.8136 141.835 56.8326 141.847 56.8484 141.863C56.8643 141.879 56.8766 141.898 56.8846 141.919C56.8925 141.939 56.896 141.962 56.8947 141.984V144.19C56.896 144.212 56.8925 144.235 56.8846 144.256C56.8766 144.277 56.8643 144.296 56.8484 144.311C56.8326 144.327 56.8136 144.34 56.7927 144.348C56.7718 144.355 56.7494 144.359 56.7271 144.358Z" fill="white"/>
<path d="M55.7653 144.914C55.73 144.911 55.6963 144.898 55.669 144.875C55.6417 144.853 55.6223 144.822 55.6134 144.788C55.6046 144.754 55.6069 144.717 55.6199 144.685C55.6329 144.652 55.656 144.624 55.6859 144.605L57.6094 143.493C57.648 143.471 57.6939 143.465 57.7369 143.476C57.7799 143.488 57.8166 143.516 57.8388 143.555C57.8611 143.593 57.867 143.639 57.8555 143.682C57.8439 143.725 57.8157 143.762 57.7771 143.784L55.8535 144.887C55.8276 144.905 55.7968 144.914 55.7653 144.914Z" fill="white"/>
<path d="M62.6123 141.111C62.5495 141.111 62.4881 141.092 62.4358 141.058C62.3684 141.017 62.3137 140.958 62.2778 140.888C62.242 140.818 62.2264 140.739 62.2329 140.661V140.211C62.2329 140.166 62.2505 140.124 62.282 140.092C62.3134 140.061 62.356 140.043 62.4005 140.043C62.445 140.043 62.4876 140.061 62.5191 140.092C62.5505 140.124 62.5682 140.166 62.5682 140.211V140.661C62.556 140.698 62.556 140.738 62.5682 140.775C62.6057 140.786 62.6453 140.786 62.6829 140.775C62.7836 140.681 62.8626 140.566 62.9144 140.438C62.9662 140.31 62.9895 140.172 62.9829 140.034V137.096C62.9829 137.052 63.0005 137.009 63.032 136.977C63.0634 136.946 63.106 136.928 63.1505 136.928C63.1729 136.927 63.1952 136.931 63.2161 136.938C63.2371 136.946 63.2561 136.959 63.2719 136.975C63.2877 136.99 63.3 137.009 63.308 137.03C63.316 137.051 63.3194 137.074 63.3181 137.096V140.034C63.3254 140.231 63.287 140.426 63.2058 140.605C63.1247 140.785 63.003 140.942 62.8505 141.067C62.7758 141.1 62.6941 141.115 62.6123 141.111Z" fill="white"/>
<path d="M60.8741 138.578V138.296C60.9139 137.561 61.1263 136.845 61.4943 136.208C61.8622 135.57 62.3752 135.028 62.9918 134.625C63.2129 134.442 63.4848 134.331 63.7709 134.308C64.057 134.284 64.3435 134.349 64.5916 134.493C64.8398 134.637 65.0377 134.854 65.1587 135.115C65.2797 135.375 65.3179 135.666 65.2682 135.949V136.037L60.8741 138.578ZM63.98 134.661C63.6865 134.676 63.4015 134.764 63.1506 134.917C62.6282 135.263 62.1857 135.717 61.8525 136.248C61.5193 136.779 61.3031 137.375 61.2183 137.996L64.9329 135.852C64.9489 135.644 64.911 135.436 64.8228 135.248C64.7347 135.059 64.5994 134.896 64.43 134.775C64.2974 134.682 64.1417 134.627 63.98 134.617V134.661Z" fill="white"/>
<path d="M68.5593 137.696C68.5148 137.696 68.4722 137.678 68.4407 137.647C68.4093 137.615 68.3916 137.573 68.3916 137.528V131.899C68.3859 131.874 68.3857 131.849 68.3913 131.824C68.3968 131.799 68.4078 131.776 68.4235 131.757C68.4392 131.737 68.4592 131.721 68.4819 131.71C68.5046 131.699 68.5296 131.693 68.5549 131.693C68.5801 131.693 68.6051 131.699 68.6278 131.71C68.6505 131.721 68.6705 131.737 68.6862 131.757C68.7019 131.776 68.7129 131.799 68.7184 131.824C68.724 131.849 68.7238 131.874 68.7181 131.899V137.528C68.7181 137.571 68.7017 137.613 68.6721 137.644C68.6426 137.675 68.6022 137.694 68.5593 137.696Z" fill="white"/>
<path d="M68.1181 133.205H68.0475C68.0272 133.196 68.0088 133.184 67.9936 133.168C67.9784 133.152 67.9667 133.133 67.9592 133.112C67.9517 133.091 67.9487 133.069 67.9502 133.047C67.9517 133.025 67.9578 133.004 67.9681 132.984L68.5505 131.625L69.2122 132.384C69.2414 132.415 69.2576 132.456 69.2576 132.499C69.2576 132.542 69.2414 132.583 69.2122 132.614C69.1797 132.643 69.1372 132.66 69.0931 132.66C69.049 132.66 69.0065 132.643 68.974 132.614L68.6652 132.252L68.2858 133.134C68.2684 133.162 68.243 133.183 68.213 133.196C68.1831 133.209 68.1499 133.212 68.1181 133.205Z" fill="white"/>
<path d="M70.0857 136.814C70.042 136.811 70.0006 136.793 69.9696 136.762C69.9386 136.731 69.9202 136.69 69.9181 136.646V131.017C69.9181 130.972 69.9358 130.93 69.9672 130.898C69.9986 130.867 70.0413 130.849 70.0857 130.849C70.1302 130.849 70.1728 130.867 70.2043 130.898C70.2357 130.93 70.2534 130.972 70.2534 131.017V136.646C70.2512 136.69 70.2329 136.731 70.2019 136.762C70.1709 136.793 70.1295 136.811 70.0857 136.814Z" fill="white"/>
<path d="M69.6005 132.34H69.5387C69.5184 132.331 69.5 132.319 69.4846 132.303C69.4691 132.287 69.457 132.269 69.4488 132.248C69.4406 132.228 69.4365 132.206 69.4368 132.184C69.4371 132.162 69.4417 132.14 69.4505 132.12L70.0416 130.761L70.6946 131.52C70.7103 131.535 70.7228 131.554 70.7313 131.574C70.7399 131.595 70.7442 131.616 70.7442 131.639C70.7442 131.661 70.7399 131.683 70.7313 131.703C70.7228 131.724 70.7103 131.742 70.6946 131.758C70.6626 131.785 70.6219 131.8 70.5799 131.8C70.5378 131.8 70.4971 131.785 70.4652 131.758L70.1475 131.396L69.7681 132.278C69.7488 132.303 69.7229 132.322 69.6932 132.333C69.6635 132.344 69.6314 132.347 69.6005 132.34Z" fill="white"/>
<path d="M52.2183 150.499L27.1244 136.011V86.3523L52.2183 100.832V150.499Z" fill="#E0E0E0"/>
<path d="M39.0272 99.0933L41.4625 100.496V94.6287L39.0272 93.2169V99.0933Z" fill="#F5F5F5"/>
<path d="M41.4625 94.6287L66.5476 80.1406L64.1211 78.7376L39.0272 93.2169L41.4625 94.6287Z" fill="white"/>
<path d="M32.2332 126.543L39.9272 130.955C40.3727 131.244 40.7432 131.635 41.0086 132.095C41.2739 132.555 41.4264 133.071 41.4537 133.602V138.349C41.4537 139.319 40.7743 139.717 39.9272 139.231L32.2332 134.82C31.7866 134.531 31.4146 134.14 31.1478 133.68C30.881 133.22 30.7268 132.704 30.6979 132.172V127.425C30.7067 126.455 31.3861 126.058 32.2332 126.543Z" fill="#F5F5F5"/>
<path d="M31.6332 127.734L31.9244 127.902V133.178L31.6332 133.002V127.734Z" fill="#E0E0E0"/>
<path d="M32.8243 128.423L33.3273 128.714V133.99L32.8243 133.69V128.423Z" fill="#E0E0E0"/>
<path d="M34.0155 129.102L34.3067 129.278V134.546L34.0155 134.378V129.102Z" fill="#E0E0E0"/>
<path d="M34.9155 129.614L35.4979 129.967V135.234L34.9155 134.89V129.614Z" fill="#E0E0E0"/>
<path d="M36.3978 130.478L36.689 130.646V135.922L36.3978 135.755V130.478Z" fill="#E0E0E0"/>
<path d="M37.2537 130.964L37.8801 131.334V136.611L37.2537 136.24V130.964Z" fill="#E0E0E0"/>
<path d="M38.7802 131.855L39.0713 132.022V137.299L38.7802 137.122V131.855Z" fill="#E0E0E0"/>
<path d="M39.4596 132.243L39.6008 132.322V137.599L39.4596 137.511V132.243Z" fill="#E0E0E0"/>
<path d="M38.233 131.564L38.383 131.652V136.928L38.233 136.84V131.564Z" fill="#E0E0E0"/>
<path d="M35.8331 130.161L35.9831 130.249V135.517L35.8331 135.437V130.161Z" fill="#E0E0E0"/>
<path d="M34.5184 129.411L34.6684 129.49V134.767L34.5184 134.678V129.411Z" fill="#E0E0E0"/>
<path d="M33.5831 128.89L33.7243 128.97V134.246L33.5831 134.158V128.89Z" fill="#E0E0E0"/>
<path d="M32.3037 128.114L32.4449 128.193V133.47L32.3037 133.381V128.114Z" fill="#E0E0E0"/>
<path d="M39.9625 132.543L40.2625 132.711V137.978L39.9625 137.811V132.543Z" fill="#E0E0E0"/>
<path d="M27.3626 223.063L123.662 278.651C124.846 279.251 126.155 279.564 127.482 279.564C128.81 279.564 130.119 279.251 131.303 278.651L342.298 156.887C344.407 155.669 344.407 153.693 342.298 152.475L245.999 96.8875C244.816 96.2826 243.507 95.9673 242.178 95.9673C240.85 95.9673 239.541 96.2826 238.358 96.8875L27.3626 218.651C25.2538 219.869 25.2538 221.845 27.3626 223.063Z" fill="#455A64"/>
<path d="M79.4122 248.871C81.054 249.7 82.8673 250.131 84.7062 250.131C86.5452 250.131 88.3585 249.7 90.0003 248.871C92.9385 247.177 92.9385 244.46 90.0003 242.739C88.3597 241.907 86.5459 241.473 84.7062 241.473C82.8665 241.473 81.0527 241.907 79.4122 242.739C76.4739 244.46 76.4739 247.195 79.4122 248.871Z" fill="#263238"/>
<path d="M125.471 278.651L29.1715 223.063C27.2833 221.969 27.0892 220.275 28.5803 219.057C27.6385 219.802 26.8641 220.737 26.3077 221.801C25.7513 222.865 25.4253 224.035 25.351 225.233V228.825C25.4234 230.15 25.807 231.44 26.4708 232.59C27.1345 233.739 28.0598 234.717 29.1715 235.442L125.471 291.03C126.648 291.645 127.963 291.949 129.291 291.912V279.568C127.96 279.594 126.645 279.278 125.471 278.651Z" fill="#37474F"/>
<path d="M342.289 169.257C343.404 168.534 344.331 167.557 344.997 166.407C345.662 165.257 346.047 163.967 346.119 162.64V159.049C346.047 157.849 345.722 156.677 345.163 155.613C344.605 154.548 343.827 153.614 342.881 152.872C344.381 154.09 344.186 155.784 342.298 156.869L131.303 278.651C130.125 279.263 128.81 279.567 127.482 279.533V291.948C128.81 291.982 130.125 291.678 131.303 291.065L342.289 169.257Z" fill="#263238"/>
<path d="M139.526 267.136L47.3566 213.895C46.086 213.163 46.086 211.972 47.3566 211.248L225.52 108.358C226.231 107.997 227.017 107.809 227.814 107.809C228.611 107.809 229.397 107.997 230.108 108.358L322.313 161.59C323.575 162.322 323.575 163.505 322.313 164.237L144.079 267.136C143.373 267.491 142.593 267.676 141.803 267.676C141.012 267.676 140.233 267.491 139.526 267.136Z" fill="white"/>
<path d="M102.388 237.41L113.144 231.198L109.562 229.133L98.8062 235.336L102.388 237.41Z" fill="#BA68C8"/>
<path d="M231.423 162.913L242.178 156.702L238.587 154.637L227.84 160.849L231.423 162.913Z" fill="#BA68C8"/>
<path d="M252.925 150.499L263.681 144.287L260.099 142.222L249.343 148.425L252.925 150.499Z" fill="#BA68C8"/>
<path d="M287.443 128.749C287.861 128.958 288.321 129.067 288.788 129.067C289.255 129.067 289.716 128.958 290.134 128.749C290.296 128.694 290.436 128.589 290.536 128.45C290.635 128.311 290.689 128.144 290.689 127.973C290.689 127.801 290.635 127.634 290.536 127.495C290.436 127.356 290.296 127.251 290.134 127.196C289.717 126.983 289.256 126.872 288.788 126.872C288.32 126.872 287.859 126.983 287.443 127.196C287.281 127.251 287.14 127.356 287.041 127.495C286.941 127.634 286.888 127.801 286.888 127.973C286.888 128.144 286.941 128.311 287.041 128.45C287.14 128.589 287.281 128.694 287.443 128.749Z" fill="#263238"/>
<path d="M291.74 140.934C292.573 141.356 293.493 141.576 294.426 141.576C295.36 141.576 296.28 141.356 297.113 140.934C298.596 140.052 298.596 138.684 297.113 137.828C296.28 137.407 295.36 137.187 294.426 137.187C293.493 137.187 292.573 137.407 291.74 137.828C290.257 138.684 290.257 140.078 291.74 140.934Z" fill="#263238"/>
<path d="M287.946 135.534C288.934 134.961 288.881 134.008 287.831 133.399L270.184 123.19C269.616 122.886 268.984 122.721 268.34 122.708C267.695 122.696 267.057 122.837 266.478 123.12C265.49 123.693 265.543 124.646 266.593 125.255L284.293 135.464C284.854 135.759 285.477 135.919 286.111 135.931C286.745 135.943 287.373 135.807 287.946 135.534Z" fill="#263238"/>
<path d="M257.822 94.1346L258.422 93.7816C258.008 95.2873 257.806 96.8435 257.822 98.4051V100.558C257.822 108.287 267.096 128.034 270.511 135.022C270.863 135.755 266.178 140.74 266.178 140.74L271.746 137.528C271.746 137.528 285.66 126.058 285.66 116.634V114.481C285.66 105.014 279.431 93.7463 271.746 89.3081C267.863 87.0758 264.361 86.9964 261.837 88.6905L256.543 91.7258L257.822 94.1346ZM264.784 101.361C264.784 96.9493 267.899 95.1228 271.746 97.3463C271.428 100.196 276.634 109.073 278.699 109.399C278.699 113.811 275.584 115.637 271.746 113.414C269.725 112.09 268.046 110.309 266.842 108.215C265.639 106.121 264.946 103.773 264.819 101.361H264.784Z" fill="#BA68C8"/>
<path d="M252.096 104.008C252.255 113.467 266.619 140.74 266.619 140.74C266.619 140.74 280.349 129.075 280.199 119.617V117.464C280.04 108.005 273.625 96.8345 265.861 92.5287C258.096 88.2229 251.937 92.3875 252.096 101.855V104.008ZM259.067 104.696C258.996 100.285 262.084 98.4051 265.958 100.558C268.005 101.845 269.72 103.597 270.963 105.671C272.207 107.746 272.943 110.084 273.113 112.496C273.193 116.908 270.105 118.787 266.222 116.634C264.177 115.345 262.464 113.592 261.221 111.518C259.978 109.445 259.24 107.108 259.067 104.696Z" fill="#BA68C8"/>
<path opacity="0.1" d="M252.096 104.008C252.255 113.467 266.619 140.74 266.619 140.74C266.619 140.74 280.349 129.075 280.199 119.617V117.464C280.04 108.005 273.625 96.8345 265.861 92.5287C258.096 88.2229 251.937 92.3875 252.096 101.855V104.008ZM259.067 104.696C258.996 100.285 262.084 98.4051 265.958 100.558C268.005 101.845 269.72 103.597 270.963 105.671C272.207 107.746 272.943 110.084 273.113 112.496C273.193 116.908 270.105 118.787 266.222 116.634C264.177 115.345 262.464 113.592 261.221 111.518C259.978 109.445 259.24 107.108 259.067 104.696Z" fill="black"/>
<path d="M117.53 230.157C126.45 235.292 147.362 231.56 164.241 221.81L210.608 195.048C227.487 185.299 233.929 173.246 224.99 168.119C216.052 162.993 195.123 166.743 178.226 176.484L131.947 203.21C115.077 212.951 108.618 225.048 117.53 230.157Z" fill="#F0F0F0"/>
<path d="M252.528 5.80297H252.572L260.205 1.39125H260.266C265.075 -1.04403 271.499 -0.373438 278.416 4.12652C292.322 13.0735 302.937 33.7204 302.134 50.2291C301.728 58.4613 298.604 64.1083 293.778 66.5966H293.734L286.093 71.0083H286.04C281.231 73.4524 274.799 72.773 267.872 68.2818C253.975 59.326 243.361 38.688 244.164 22.1793C244.587 13.9382 247.755 8.29119 252.528 5.80297Z" fill="#37474F"/>
<path d="M286.481 70.7789L293.76 66.5436H293.813C298.596 64.0466 301.754 58.3996 302.16 50.1761C302.513 42.8174 300.598 34.638 297.14 27.041L289.499 31.4528C292.966 39.0497 294.881 47.2291 294.519 54.5967C294.14 62.626 291.104 68.2113 286.481 70.7789Z" fill="#263238"/>
<path d="M267.908 68.273C254.011 59.3172 243.396 38.6792 244.199 22.1705C245.002 5.6618 256.94 -0.470498 270.81 8.47649C284.681 17.4235 295.331 38.0704 294.528 54.579C293.725 71.0877 281.805 77.22 267.908 68.273Z" fill="#455A64"/>
<path d="M279.555 67.1083C287.752 67.5054 289.084 58.2849 289.26 54.3143C289.966 39.7556 280.208 20.7852 267.952 12.8882C265.34 11.059 262.301 9.93452 259.128 9.62353C250.94 9.22647 249.608 18.447 249.423 22.4175C248.717 36.9762 258.467 55.9467 270.731 63.8878C273.342 65.717 276.382 66.8414 279.555 67.1524V67.1083Z" fill="#FAFAFA"/>
<path d="M267.666 41.1507C267.763 41.1518 267.859 41.1346 267.949 41.1C268.134 41.0417 268.294 40.9241 268.406 40.7655C268.517 40.607 268.573 40.4161 268.565 40.2226L268.733 19.1969C268.735 18.9629 268.643 18.7378 268.479 18.571C268.315 18.4042 268.091 18.3095 267.857 18.3076C267.623 18.3057 267.398 18.3969 267.231 18.561C267.065 18.7252 266.97 18.9489 266.968 19.1829L266.821 37.6498L257.101 24.9543C256.958 24.7659 256.745 24.6423 256.51 24.6107C256.276 24.579 256.038 24.6419 255.85 24.7855C255.661 24.9291 255.538 25.1416 255.506 25.3763C255.474 25.6111 255.537 25.8488 255.681 26.0371L266.99 40.8012C267.069 40.9063 267.171 40.9922 267.288 41.0527C267.405 41.1132 267.535 41.1467 267.666 41.1507Z" fill="#37474F"/>
<path d="M272.822 56.6614C272.863 56.6694 272.905 56.6694 272.946 56.6614C273.039 56.6327 273.118 56.5689 273.166 56.4834C273.214 56.3979 273.227 56.2973 273.202 56.2025L268.252 39.535C268.224 39.4403 268.159 39.3605 268.072 39.3134C267.985 39.2662 267.883 39.2555 267.789 39.2836C267.694 39.3116 267.614 39.3762 267.567 39.4631C267.52 39.55 267.509 39.652 267.537 39.7468L272.478 56.4143C272.503 56.4857 272.55 56.5477 272.611 56.5919C272.673 56.636 272.747 56.6603 272.822 56.6614Z" fill="#BA68C8"/>
<path d="M268.04 35.9968C266.399 34.9468 264.996 35.6704 264.908 37.6115C264.913 38.6703 265.168 39.7129 265.653 40.6543C266.137 41.5957 266.837 42.4094 267.696 43.0291C269.328 44.0879 270.731 43.3644 270.828 41.4233C270.821 40.3636 270.564 39.3206 270.08 38.378C269.596 37.4355 268.897 36.6199 268.04 35.9968Z" fill="#BA68C8"/>
<path d="M123.9 224.995L134.647 218.783L131.065 216.719L120.318 222.922L123.9 224.995Z" fill="#BA68C8"/>
<path d="M145.403 212.581L156.159 206.369L152.568 204.304L141.821 210.507L145.403 212.581Z" fill="#BA68C8"/>
<path d="M140.982 210.048C140.982 215.236 137.347 221.519 132.856 224.166C130.465 225.551 128.312 225.595 126.829 224.554C126.232 224.084 125.741 223.493 125.39 222.819C125.038 222.145 124.834 221.404 124.791 220.645C125.093 220.504 125.388 220.348 125.674 220.178C130.165 217.592 133.8 211.284 133.8 206.06C133.804 205.674 133.781 205.287 133.729 204.904C134.403 204.548 135.142 204.336 135.902 204.281C136.661 204.227 137.424 204.331 138.141 204.587C139.906 205.328 140.982 207.242 140.982 210.048Z" fill="#263238"/>
<path d="M141.715 199.39L141.565 199.301C139.306 198.101 136.271 198.322 132.856 200.281C125.93 204.278 120.309 214.001 120.309 222.004C120.309 226.028 121.73 228.842 124.024 230.148C126.318 231.454 129.415 231.233 132.847 229.266C139.774 225.269 145.385 215.536 145.385 207.534C145.394 203.51 144 200.695 141.715 199.39ZM132.891 224.148C130.491 225.533 128.338 225.578 126.856 224.528C125.55 223.645 124.756 221.881 124.756 219.454C124.756 214.275 128.4 207.984 132.891 205.337C134.938 204.154 136.8 203.951 138.185 204.56C139.897 205.292 140.973 207.207 140.973 210.031C140.982 215.254 137.347 221.563 132.856 224.166L132.891 224.148Z" fill="#37474F"/>
<path d="M138.6 204.798L138.503 204.745C137.038 203.96 135.053 204.11 132.856 205.372C128.365 207.966 124.721 214.275 124.721 219.489C124.721 222.136 125.603 223.901 127.129 224.783C128.656 225.666 130.659 225.489 132.856 224.201C137.347 221.607 140.982 215.298 140.982 210.084C140.982 207.472 140.073 205.637 138.6 204.798ZM132.856 222.313C130.932 223.425 129.203 223.46 128.003 222.613C126.962 221.881 126.318 220.478 126.318 218.536C126.441 216.268 127.098 214.062 128.234 212.095C129.37 210.128 130.953 208.456 132.856 207.216C133.474 206.784 134.184 206.503 134.93 206.394C135.676 206.285 136.437 206.352 137.153 206.589C138.529 207.181 139.394 208.716 139.394 211.001C139.271 213.268 138.615 215.474 137.479 217.44C136.343 219.405 134.759 221.075 132.856 222.313Z" fill="#BA68C8"/>
<path d="M166.906 200.157L177.661 193.954L174.079 191.881L163.323 198.093L166.906 200.157Z" fill="#BA68C8"/>
<path d="M188.417 187.743L199.164 181.54L195.582 179.466L184.826 185.678L188.417 187.743Z" fill="#BA68C8"/>
<path d="M209.92 175.328L220.667 169.125L217.084 167.052L206.329 173.263L209.92 175.328Z" fill="#BA68C8"/>
<path d="M156.406 117.596C156.518 117.446 156.675 117.336 156.855 117.281C157.034 117.226 157.226 117.23 157.403 117.292C157.581 117.354 157.733 117.471 157.839 117.626C157.946 117.78 158 117.965 157.994 118.152C158.063 118.654 158.012 119.166 157.845 119.644C157.677 120.123 157.399 120.555 157.032 120.905C156.326 121.514 155.612 121.267 155.444 120.349C155.376 119.847 155.427 119.336 155.594 118.857C155.762 118.379 156.04 117.947 156.406 117.596Z" fill="#BA68C8"/>
<path d="M164.682 121.496L157.491 117.34L155.911 121.143L163.129 125.308L164.682 121.496Z" fill="#BA68C8"/>
<path d="M163.579 121.734C164.285 121.134 164.991 121.381 165.167 122.299C165.232 122.801 165.178 123.31 165.01 123.787C164.841 124.264 164.563 124.694 164.197 125.043C163.491 125.652 162.776 125.405 162.609 124.487C162.544 123.984 162.598 123.474 162.767 122.996C162.936 122.518 163.214 122.086 163.579 121.734Z" fill="#BA68C8"/>
<path d="M218.849 156.534C218.849 156.711 218.849 156.869 218.849 157.046C218.849 157.399 218.849 157.76 218.849 158.122C217.42 157.513 215.558 157.716 213.511 158.899C209.02 161.493 205.376 167.802 205.376 173.016C205.376 175.434 206.17 177.181 207.476 178.09C207.109 178.35 206.729 178.592 206.338 178.813L205.923 179.025L204.679 183.71L197.479 179.696C195.202 178.381 193.799 175.575 193.799 171.569C193.799 163.566 199.411 153.843 206.338 149.837C209.761 147.861 212.858 147.658 215.161 148.955L222.22 152.908L222.37 152.996L218.849 156.534Z" fill="#455A64"/>
<path d="M222.361 152.916L222.211 152.828C219.952 151.628 216.917 151.849 213.502 153.808C206.576 157.805 200.955 167.528 200.955 175.531C200.955 179.554 202.376 182.369 204.67 183.675C206.964 184.981 210.061 184.76 213.493 182.793C220.42 178.796 226.032 169.063 226.032 161.06C226.058 157.037 224.637 154.222 222.361 152.916ZM213.538 177.675C211.138 179.06 208.985 179.104 207.502 178.054C206.196 177.172 205.402 175.407 205.402 172.981C205.402 167.802 209.046 161.51 213.538 158.863C215.585 157.681 217.446 157.478 218.876 158.087C220.588 158.819 221.664 160.734 221.664 163.557C221.646 168.781 217.993 175.09 213.502 177.675H213.538Z" fill="#37474F"/>
<path d="M221.646 163.593C221.646 168.781 218.011 175.063 213.52 177.71C211.129 179.096 208.976 179.14 207.493 178.099C206.896 177.629 206.405 177.038 206.054 176.364C205.702 175.69 205.498 174.949 205.455 174.19C205.757 174.049 206.051 173.893 206.338 173.722C210.829 171.137 214.464 164.828 214.464 159.605C214.468 159.218 214.445 158.832 214.393 158.449C215.066 158.093 215.806 157.88 216.566 157.826C217.325 157.771 218.088 157.875 218.805 158.131C220.552 158.872 221.646 160.769 221.646 163.593Z" fill="#263238"/>
<path d="M219.246 158.325L219.149 158.263C217.685 157.487 215.69 157.628 213.502 158.899C209.011 161.493 205.367 167.793 205.367 173.016C205.367 175.663 206.249 177.428 207.776 178.31C209.302 179.193 211.305 179.007 213.502 177.719C217.993 175.134 221.629 168.825 221.629 163.602C221.646 160.999 220.764 159.172 219.246 158.325ZM213.502 175.831C211.57 176.951 209.84 176.987 208.649 176.14C207.599 175.407 206.964 174.004 206.964 172.063C207.088 169.795 207.744 167.588 208.88 165.622C210.016 163.655 211.599 161.983 213.502 160.743C215.143 159.79 216.643 159.622 217.79 160.116C219.167 160.708 220.032 162.243 220.032 164.528C219.909 166.793 219.254 168.997 218.119 170.961C216.985 172.925 215.403 174.593 213.502 175.831Z" fill="#BA68C8"/>
<path d="M206.329 166.231L226.623 154.513C228.979 153.146 221.329 145.161 215.638 144.622C212.504 144.244 209.326 144.545 206.32 145.505C206.32 145.505 210.652 151.055 209.911 154.205C209.17 157.355 206.329 166.231 206.329 166.231Z" fill="#BA68C8"/>
<path d="M177.661 133.117C177.661 133.117 207.079 147.958 208.349 148.849C209.62 149.74 208.349 160.09 206.329 166.231C204.308 172.372 201.202 181.813 199.958 184.46C198.714 187.107 197.091 188.096 194.108 189.816L172.932 202.054L144.265 205.548L132.882 199.372L135.847 180.746C135.847 180.746 166.314 164.537 170.488 162.128C174.661 159.719 187.005 148.416 177.661 133.117Z" fill="#BA68C8"/>
<path opacity="0.2" d="M177.661 133.117C177.661 133.117 207.079 147.958 208.349 148.849C209.62 149.74 208.349 160.09 206.329 166.231C204.308 172.372 201.202 181.813 199.958 184.46C198.714 187.107 197.091 188.096 194.108 189.816L172.932 202.054L144.265 205.548L132.882 199.372L135.847 180.746C135.847 180.746 166.314 164.537 170.488 162.128C174.661 159.719 187.005 148.416 177.661 133.117Z" fill="black"/>
<path d="M208.914 162.693C211.561 155.581 213.537 149.687 213.202 145.708C212.796 140.987 211.032 137.131 203.249 135.19C195.467 133.249 184.588 133.284 184.588 133.284L181.279 135.199C181.279 135.199 203.655 148.169 206.196 149.581C207.749 150.464 209.408 154.355 206.364 166.24L206.885 166.54C207.14 166.699 208.067 164.978 208.914 162.693Z" fill="#BA68C8"/>
<path opacity="0.3" d="M208.914 162.693C211.561 155.581 213.537 149.687 213.202 145.708C212.796 140.987 211.032 137.131 203.249 135.19C195.467 133.249 184.588 133.284 184.588 133.284L181.279 135.199C181.279 135.199 203.655 148.169 206.196 149.581C207.749 150.464 209.408 154.355 206.364 166.24L206.885 166.54C207.14 166.699 208.067 164.978 208.914 162.693Z" fill="white"/>
<path d="M191.964 141.393L195.582 139.328C195.582 139.328 195.37 126.79 190.094 123.746C184.817 120.702 166.906 122.775 166.906 122.775L163.323 124.84L191.964 141.393Z" fill="#BA68C8"/>
<path d="M180.229 126.614C178.508 127.611 178.508 129.217 180.229 130.205C181.194 130.696 182.261 130.952 183.344 130.952C184.426 130.952 185.494 130.696 186.458 130.205C188.17 129.217 188.17 127.602 186.458 126.614C185.492 126.127 184.426 125.873 183.344 125.873C182.262 125.873 181.195 126.127 180.229 126.614Z" fill="#F0F0F0"/>
<path d="M185.735 132.605C184.526 133.311 184.526 134.449 185.735 135.146C186.418 135.495 187.174 135.677 187.941 135.677C188.708 135.677 189.464 135.495 190.147 135.146C191.364 134.449 191.364 133.311 190.147 132.605C189.462 132.26 188.707 132.08 187.941 132.08C187.174 132.08 186.419 132.26 185.735 132.605Z" fill="#F0F0F0"/>
<path d="M171.873 125.017C170.656 125.714 170.656 126.852 171.873 127.558C172.557 127.903 173.313 128.083 174.079 128.083C174.845 128.083 175.601 127.903 176.285 127.558C177.503 126.852 177.503 125.714 176.285 125.017C175.602 124.667 174.846 124.485 174.079 124.485C173.312 124.485 172.556 124.667 171.873 125.017Z" fill="#F0F0F0"/>
<path d="M192.529 137.758C193.235 137.149 193.941 137.396 194.117 138.314C194.182 138.816 194.128 139.327 193.96 139.806C193.791 140.284 193.513 140.716 193.147 141.067C193.034 141.217 192.877 141.327 192.697 141.382C192.518 141.436 192.326 141.432 192.149 141.37C191.972 141.309 191.819 141.192 191.713 141.037C191.607 140.883 191.553 140.698 191.558 140.511C191.49 140.008 191.543 139.496 191.712 139.017C191.881 138.539 192.161 138.107 192.529 137.758Z" fill="#BA68C8"/>
<path d="M200.761 141.658L193.561 137.502L191.991 141.305L199.199 145.461L200.761 141.658Z" fill="#BA68C8"/>
<path d="M199.649 141.896C199.762 141.746 199.919 141.635 200.099 141.581C200.278 141.526 200.47 141.53 200.647 141.592C200.824 141.654 200.977 141.771 201.083 141.925C201.189 142.08 201.243 142.264 201.238 142.452C201.305 142.955 201.252 143.466 201.083 143.945C200.914 144.423 200.635 144.855 200.267 145.205C199.561 145.814 198.855 145.558 198.679 144.649C198.613 144.146 198.667 143.635 198.835 143.156C199.004 142.678 199.283 142.246 199.649 141.896Z" fill="#BA68C8"/>
<path d="M199.649 141.896C199.762 141.746 199.919 141.635 200.099 141.581C200.278 141.526 200.47 141.53 200.647 141.592C200.824 141.654 200.977 141.771 201.083 141.925C201.189 142.08 201.243 142.264 201.238 142.452C201.305 142.955 201.252 143.466 201.083 143.945C200.914 144.423 200.635 144.855 200.267 145.205C199.561 145.814 198.855 145.558 198.679 144.649C198.613 144.146 198.667 143.635 198.835 143.156C199.004 142.678 199.283 142.246 199.649 141.896Z" fill="black"/>
<path d="M138.203 202.99C138.203 203.166 138.203 203.325 138.203 203.501C138.203 203.854 138.203 204.216 138.203 204.578C136.774 203.969 134.912 204.172 132.909 205.354C128.418 207.948 124.774 214.257 124.774 219.472C124.774 221.889 125.568 223.636 126.874 224.545C126.507 224.806 126.127 225.047 125.735 225.269L125.321 225.48L124.077 230.166L116.877 226.151C114.6 224.836 113.197 222.031 113.197 218.025C113.197 210.022 118.809 200.298 125.735 196.293C129.159 194.316 132.256 194.113 134.559 195.41L141.618 199.363L141.768 199.451L138.203 202.99Z" fill="#455A64"/>
<path d="M116.727 188.987L111.353 207.613L122.109 213.825L127.677 195.313L116.727 188.987Z" fill="#BA68C8"/>
<path opacity="0.2" d="M116.727 188.987L111.353 207.613L122.109 213.825L127.677 195.313L116.727 188.987Z" fill="black"/>
<path d="M116.727 188.987C116.727 188.987 122.824 194.166 127.676 195.313C134.047 196.857 144.176 197.025 147.767 197.272C153.256 197.651 157.403 197.643 159.344 196.945C161.859 196.063 168.617 192.137 170.488 191.06C174.07 188.996 175.597 180.869 165.723 178.646C159.047 177.262 152.247 176.568 145.429 176.572L116.727 188.987Z" fill="#BA68C8"/>
<path d="M177.529 186.604C177.222 187.372 177.015 188.175 176.911 188.996C176.627 189.848 176.56 190.758 176.717 191.643C177.39 192.755 178.448 193.581 179.691 193.963C180.586 194.162 181.512 194.175 182.412 194C183.313 193.826 184.167 193.468 184.923 192.948C186.749 191.854 188.126 190.531 190.72 189.79C192.574 189.397 194.321 188.605 195.838 187.469C197.276 186.313 199.199 183.119 196.446 182.378C193.694 181.637 187.711 184.249 182.258 184.487L177.529 186.604Z" fill="#37474F"/>
<path d="M177.529 183.199V187.275C177.696 187.733 177.986 188.136 178.368 188.44C178.749 188.743 179.207 188.936 179.691 188.996C180.134 189.06 180.586 189.012 181.005 188.854C181.666 188.602 182.239 188.162 182.653 187.588C183.067 187.014 183.304 186.332 183.335 185.625L183.494 183.199H177.529Z" fill="#FFA8A7"/>
<path d="M185.294 157.99C185.294 163.063 183.864 184.998 183.864 184.998C183.864 184.998 181.791 187.646 177.282 184.998L175.764 160.487L185.294 157.99Z" fill="#37474F"/>
<path d="M161.647 179.607L175.764 171.472C176.343 171.169 176.827 170.713 177.165 170.153C177.503 169.594 177.682 168.953 177.682 168.3C177.682 167.647 177.503 167.006 177.165 166.447C176.827 165.888 176.343 165.432 175.764 165.128L165.247 159.058C164.655 158.758 164 158.601 163.336 158.601C162.673 158.601 162.018 158.758 161.426 159.058L147.309 167.193C146.733 167.498 146.251 167.955 145.915 168.514C145.579 169.073 145.401 169.713 145.401 170.365C145.401 171.017 145.579 171.657 145.915 172.216C146.251 172.774 146.733 173.231 147.309 173.537L157.826 179.607C158.418 179.907 159.073 180.064 159.737 180.064C160.4 180.064 161.055 179.907 161.647 179.607Z" fill="#BA68C8"/>
<path d="M161.647 179.607L175.764 171.472C176.343 171.169 176.827 170.713 177.165 170.153C177.503 169.594 177.682 168.953 177.682 168.3C177.682 167.647 177.503 167.006 177.165 166.447C176.827 165.888 176.343 165.432 175.764 165.128L165.247 159.058C164.655 158.758 164 158.601 163.336 158.601C162.673 158.601 162.018 158.758 161.426 159.058L147.309 167.193C146.733 167.498 146.251 167.955 145.915 168.514C145.579 169.073 145.401 169.713 145.401 170.365C145.401 171.017 145.579 171.657 145.915 172.216C146.251 172.774 146.733 173.231 147.309 173.537L157.826 179.607C158.418 179.907 159.073 180.064 159.737 180.064C160.4 180.064 161.055 179.907 161.647 179.607Z" fill="white"/>
<path d="M147.309 169.399L157.826 175.469C158.418 175.769 159.073 175.925 159.736 175.925C160.4 175.925 161.055 175.769 161.647 175.469L175.764 167.334C175.995 167.256 176.195 167.107 176.337 166.909C176.478 166.712 176.555 166.474 176.555 166.231C176.555 165.988 176.478 165.75 176.337 165.553C176.195 165.355 175.995 165.206 175.764 165.128L165.247 159.058C164.655 158.758 164 158.601 163.336 158.601C162.673 158.601 162.018 158.758 161.426 159.058L147.309 167.193C147.078 167.271 146.878 167.419 146.736 167.617C146.594 167.815 146.518 168.052 146.518 168.296C146.518 168.539 146.594 168.776 146.736 168.974C146.878 169.172 147.078 169.32 147.309 169.399Z" fill="#BA68C8"/>
<path d="M155.911 115.399L154.12 122.784L146.426 123.252L148.085 113.017L155.911 115.399Z" fill="#FFA8A7"/>
<path d="M163.411 109.84C163.411 109.84 164.294 112.964 163.932 113.14C163.376 113.225 162.811 113.225 162.256 113.14L163.411 109.84Z" fill="#F28F8F"/>
<path d="M161.938 99.8698C163.173 101.326 164.303 103.717 163.429 109.576C162.476 115.981 161.294 116.723 160.341 117.34C159.097 118.152 154.12 117.72 152.717 116.696C151.032 115.47 148.429 111.579 147.812 107.74C147.088 103.232 148.597 98.2286 151.915 97.3728C156.582 96.164 160.888 98.6345 161.938 99.8698Z" fill="#FFA8A7"/>
<path d="M147.309 115.09C148.5 116.326 150.944 116.661 152.479 116.943C154.015 117.226 158.735 117.534 160.129 114.173C161.523 110.811 160.57 108.393 162.282 107.582C163.994 106.77 165.706 106.24 166.156 105.817C166.606 105.393 166.614 99.861 162.017 96.9934C157.42 94.1257 150.379 93.464 145.747 99.2787C142.235 103.77 143.673 111.296 147.309 115.09Z" fill="#455A64"/>
<path d="M151.941 116.987C153.132 117.093 156.9 116.502 158.038 114.949C159.176 113.396 159.635 110.617 159.803 109.161C159.818 108.588 160.028 108.037 160.399 107.599C160.769 107.161 161.278 106.862 161.841 106.752C162.979 106.39 165.494 105.155 165.494 105.155V104.467C166.305 104.416 167.118 104.416 167.929 104.467C168.458 104.564 168.167 105.349 166.826 106.029C165.485 106.708 161.806 108.023 161.241 108.473C160.676 108.923 160.411 110.82 159.961 112.84C159.511 114.861 158.117 117.878 151.941 116.987Z" fill="#37474F"/>
<path d="M162.529 125.343L166.941 122.811C167.364 121.531 166.685 120.887 165.485 120.967C164.285 121.046 164.656 119.881 163.923 119.555C162.961 119.114 162.414 119.361 161.982 119.158C161.55 118.955 161.364 118.443 160.8 118.381C158.276 118.143 156.556 121.743 156.556 121.743L162.529 125.343Z" fill="#F28F8F"/>
<path d="M132.582 157.743C132.582 157.743 152.073 148.081 155.47 146.519C158.867 144.958 164.197 142.69 167.029 142.69C168.136 142.781 169.173 143.269 169.949 144.063C170.725 144.857 171.189 145.905 171.255 147.014C171.292 148.716 171.195 150.418 170.964 152.105C165.609 153.861 160.137 155.238 154.588 156.225C146.479 157.637 132.582 157.743 132.582 157.743Z" fill="#37474F"/>
<path d="M134.7 152.158C134.7 156.163 134.321 160.328 135.988 163.258C137.656 166.187 146.691 172.963 155.197 171.543C160.756 170.607 177.255 163.01 177.255 163.01C177.255 163.01 185.258 160.072 185.294 157.981C185.347 154.902 185.135 150.561 178.155 150.746C171.794 150.913 153.026 154.831 153.026 154.831L134.7 152.158Z" fill="#455A64"/>
<path d="M140.144 120.42C143.162 117.27 145.2 117.005 146.647 117.393C149.972 118.345 153.192 119.634 156.256 121.24C156.256 121.24 155.091 132.517 160.606 135.764V153.34C160.606 153.34 160.438 155.246 158.038 157.143C155.92 158.81 151.129 160.496 145.412 160.019C138.618 159.455 134.7 152.158 134.7 152.158C134.7 152.158 134.524 137.784 135.485 132.075C136.615 125.414 139.103 121.514 140.144 120.42Z" fill="#455A64"/>
<path d="M160.606 136.62C160.606 136.62 157.27 133.972 156.256 130.531C156.256 130.531 156.653 135.931 160.606 138.667V136.62Z" fill="#37474F"/>
<path d="M191.479 144.914C193.063 144.979 194.621 144.496 195.891 143.546C195.891 143.546 197.426 140.564 199.314 140.819C199.314 140.819 199.649 139.549 198.873 139.134C198.096 138.719 197.761 138.834 197.443 138.393C197.126 137.952 197.091 137.131 195.679 137.131C195.096 137.131 195.176 136.717 193.764 136.549C192.352 136.381 190.958 139.637 189.926 139.637L191.479 144.914Z" fill="#FFA8A7"/>
<path d="M156.256 121.24C161.1 121.99 162.856 123.428 164.62 125.061C166.385 126.693 177.185 137.528 177.185 137.528L190.261 139.408C190.948 139.964 191.453 140.714 191.708 141.561C192.238 143.096 191.761 144.772 191.258 145.169C191.258 145.169 178.288 145.946 175.738 145.461C173.188 144.975 160.562 136.593 160.562 136.593C159.355 135.683 158.343 134.54 157.585 133.232C156.827 131.924 156.339 130.478 156.15 128.978C155.329 123.658 156.256 121.24 156.256 121.24Z" fill="#455A64"/>
<path d="M144.626 167.846L124.588 192.304C124.366 192.332 124.142 192.347 123.918 192.348C123.123 192.361 122.338 192.176 121.632 191.81L104.709 182.034L103.562 181.372C102.936 181.01 102.415 179.528 102.415 178.063V173.943C102.414 169.71 103.528 165.552 105.643 161.885C107.759 158.219 110.803 155.175 114.468 153.058L134.673 141.393L156.176 153.808L144.626 167.846Z" fill="#BA68C8"/>
<g opacity="0.1">
<path d="M144.626 167.846L124.588 192.304C124.366 192.332 124.142 192.347 123.918 192.348C123.123 192.361 122.338 192.176 121.632 191.81L104.709 182.034L103.562 181.372C102.936 181.01 102.415 179.528 102.415 178.063V173.943C102.414 169.71 103.528 165.552 105.643 161.885C107.759 158.219 110.803 155.175 114.468 153.058L134.673 141.393L156.176 153.808L144.626 167.846Z" fill="black"/>
</g>
<path d="M137.718 176.281L156.15 153.816L134.647 141.402L114.45 153.058C111.837 154.57 109.533 156.561 107.656 158.925L137.718 176.281Z" fill="#BA68C8"/>
<path d="M156.15 171.852C156.15 173.316 155.638 174.799 155.003 175.16L153.856 175.822L126.185 191.801C125.682 192.073 125.13 192.243 124.562 192.304C124.339 192.332 124.115 192.347 123.891 192.348V186.357C123.891 182.123 125.005 177.964 127.122 174.298C129.24 170.632 132.285 167.588 135.953 165.472L138.238 164.158L156.15 153.808V171.852Z" fill="#BA68C8"/>
<g opacity="0.2">
<path d="M156.15 171.852C156.15 173.316 155.638 174.799 155.003 175.16L153.856 175.822L126.185 191.801C125.682 192.073 125.13 192.243 124.562 192.304C124.339 192.332 124.115 192.347 123.891 192.348V186.357C123.891 182.123 125.005 177.964 127.122 174.298C129.24 170.632 132.285 167.588 135.953 165.472L138.238 164.158L156.15 153.808V171.852Z" fill="black"/>
</g>
<path d="M162.088 202.116L172.914 202.081L188.408 193.134L173.232 204.101L161.806 204.26L162.088 202.116Z" fill="#E0E0E0"/>
<path d="M135.803 217.522C135.803 217.522 155.32 210.163 156.979 209.298C158.926 208.105 160.773 206.757 162.503 205.266C162.856 204.799 163.021 204.217 162.967 203.635C162.914 203.052 162.644 202.51 162.211 202.116C162.211 202.116 154.27 201.754 152.232 202.381C151.094 202.725 132.724 208.619 132.724 208.619L135.803 217.522Z" fill="#E0E0E0"/>
<path d="M134.929 209.298C133.315 207.913 131.691 208.487 131.294 210.569C131.142 211.718 131.264 212.886 131.649 213.979C132.034 215.072 132.671 216.059 133.509 216.86C135.123 218.245 136.747 217.681 137.144 215.589C137.295 214.441 137.173 213.272 136.788 212.179C136.404 211.086 135.767 210.099 134.929 209.298Z" fill="#455A64"/>
</svg>
